<svg width="281" height="281" viewBox="0 0 281 281" fill="none" xmlns="http://www.w3.org/2000/svg">
<path fill-rule="evenodd" clip-rule="evenodd" d="M62.9665 0.366731C42.9206 2.54524 23.8493 14.296 12.31 31.5793C6.44489 40.3643 3.6745 46.9439 1.48129 57.2979L0.232015 63.1947L0.0533883 134.713C-0.13417 209.72 0.0790662 218.764 2.23376 226.997C9.44304 254.547 31.8714 275.365 59.3906 280.05C64.4563 280.912 71.9698 281 140.61 281C209.25 281 216.764 280.912 221.83 280.05C251.721 274.961 275.449 250.797 280.326 220.478C280.829 217.352 281 196.917 281 140.021V63.7535L279.739 57.5308C276.719 42.6255 269.665 29.8713 258.608 19.3268C249.21 10.3642 237.868 4.42985 223.783 1.10594C219.899 0.189054 214.097 0.110273 143.401 0.0119353C101.494 -0.046173 65.2981 0.113625 62.9665 0.366731ZM147.684 44.647C151.623 46.8914 156.415 49.5896 158.333 50.6428L161.822 52.5575V67.4529V82.3481L181.896 94.0033L201.971 105.659L201.992 114.514L202.013 123.369L199.92 122.11C198.769 121.417 196.445 120.049 194.757 119.07C191.78 117.344 186.86 114.488 170.407 104.929C166.072 102.411 162.241 100.351 161.895 100.351C161.432 100.351 161.264 110.988 161.264 140.333C161.264 162.323 161.452 180.208 161.683 180.076C161.913 179.945 167.753 176.633 174.661 172.717C189.001 164.587 193.728 161.874 198.19 159.219C199.925 158.186 201.558 157.341 201.818 157.341C202.079 157.341 202.292 161.426 202.292 166.42V175.5L190.291 182.694C163.556 198.719 149.704 206.956 148.08 207.797L146.367 208.684L146.048 149.677C145.777 99.4102 145.612 90.6046 144.934 90.2252C141.648 88.3847 141.677 88.4937 141.848 78.6482L142.006 69.5174L143.489 70.6862C144.305 71.3294 145.184 71.8557 145.443 71.8562C145.702 71.8574 145.831 69.6911 145.731 67.0433C145.564 62.6382 145.421 62.1175 144.056 60.914C141.629 58.7746 143.305 58.0264 121.073 71.1718C116.621 73.804 111.597 76.7709 109.909 77.7643C108.22 78.7577 104.201 81.1396 100.977 83.0572C97.7536 84.9748 93.9856 87.1717 92.6041 87.9394C91.2225 88.7077 89.4641 89.7575 88.6966 90.2738C87.9291 90.7895 83.7218 93.2915 79.3466 95.8326L71.3921 100.454V140.629V180.804L74.6018 182.775C76.3669 183.858 80.8258 186.525 84.51 188.702C88.1942 190.879 94.4741 194.605 98.4653 196.981C102.456 199.358 106.789 201.892 108.094 202.612L110.467 203.922V213.876C110.467 219.351 110.271 223.831 110.033 223.831C109.794 223.831 109.103 223.489 108.498 223.072C107.465 222.36 102.65 219.553 85.0682 209.415C81.077 207.114 76.1787 204.275 74.1831 203.106C72.1875 201.937 67.4126 199.192 63.5727 197.005C59.7327 194.819 56.0569 192.606 55.4049 192.087L54.2193 191.145L53.8453 140.859L53.4713 90.5727L62.7538 85.2647C67.8592 82.3454 73.7126 78.9751 75.7612 77.7755C77.8098 76.5759 81.1189 74.6655 83.1145 73.5296C85.1101 72.3937 88.25 70.584 90.0921 69.5073C91.9342 68.4306 96.7069 65.6615 100.698 63.354C124.744 49.4504 133.978 44.0983 136.703 42.4847C138.391 41.484 139.942 40.6437 140.149 40.6157C140.355 40.5883 143.746 42.4026 147.684 44.647ZM178.15 61.0665C179.915 62.0834 182.867 63.7954 184.709 64.8709C186.551 65.9465 189.565 67.7065 191.407 68.7821C195.134 70.9583 198.744 73.0754 206.2 77.4581C212.186 80.977 215.622 82.9756 222.527 86.9566L227.691 89.933V140.657V191.382L220.853 195.376C217.092 197.574 212.256 200.39 210.107 201.635C207.958 202.879 205.069 204.578 203.688 205.409C202.306 206.24 193.64 211.264 184.43 216.575C175.219 221.885 163.28 228.808 157.899 231.957C152.517 235.106 146.865 238.369 145.339 239.207C143.813 240.045 142.342 240.934 142.071 241.183C141.607 241.609 139.096 240.36 132.478 236.414C130.922 235.485 127.479 233.469 124.827 231.933L120.004 229.139L119.979 201.202C119.965 185.837 119.789 167.797 119.587 161.113L119.22 148.96H108.13H97.0402L97.1948 167.399C97.2796 177.54 97.3126 185.837 97.2679 185.837C97.2227 185.837 93.3292 183.625 88.6157 180.923L80.0443 176.009V140.879V105.75L87.8593 100.855C92.1575 98.1626 95.8629 95.9416 96.0929 95.9204C96.3229 95.8986 96.5115 104.052 96.5115 114.04V132.198H108.228H119.945L120.09 107.541L120.235 82.884L126.097 79.0779C129.32 76.9843 132.963 74.6812 134.191 73.9599L136.424 72.6485L136.254 145.586L136.085 218.523L138.649 220.059C140.06 220.904 141.408 221.596 141.647 221.596C142.077 221.596 148.922 217.659 167.125 206.943C172.344 203.87 178.373 200.332 180.522 199.081C182.671 197.83 187.57 194.942 191.407 192.664C195.245 190.386 199.766 187.713 201.455 186.724C203.144 185.734 205.971 184.07 207.738 183.026L210.952 181.127L210.808 140.621L210.666 100.115L205.363 96.973C202.446 95.2443 198.929 93.1882 197.548 92.4031C196.166 91.6181 192.775 89.6514 190.012 88.0327C183.224 84.0568 178.889 81.5369 175.219 79.4338L172.149 77.6749L171.997 67.4288L171.844 57.1828L173.392 58.2002C174.243 58.7601 176.384 60.0502 178.15 61.0665Z" fill="url(#paint0_linear_522_38177)"/>
<defs>
<linearGradient id="paint0_linear_522_38177" x1="53.5" y1="113" x2="293" y2="134.5" gradientUnits="userSpaceOnUse">
<stop stop-color="#7367F0"/>
<stop offset="1" stop-color="#9B84FF"/>
</linearGradient>
</defs>
</svg>
