<svg width="48" height="48" viewBox="0 0 48 48" fill="none" xmlns="http://www.w3.org/2000/svg">
<rect width="48" height="48" rx="6" fill="#EA5455" fill-opacity="0.12"/>
<path d="M29.9099 29.832V33H17.2139V30.48L23.6939 24.36C24.3819 23.704 24.8459 23.144 25.0859 22.68C25.3259 22.2 25.4459 21.728 25.4459 21.264C25.4459 20.592 25.2139 20.08 24.7499 19.728C24.3019 19.36 23.6379 19.176 22.7579 19.176C22.0219 19.176 21.3579 19.32 20.7659 19.608C20.1739 19.88 19.6779 20.296 19.2779 20.856L16.4459 19.032C17.1019 18.056 18.0059 17.296 19.1579 16.752C20.3099 16.192 21.6299 15.912 23.1179 15.912C24.3659 15.912 25.4539 16.12 26.3819 16.536C27.3259 16.936 28.0539 17.512 28.5659 18.264C29.0939 19 29.3579 19.872 29.3579 20.88C29.3579 21.792 29.1659 22.648 28.7819 23.448C28.3979 24.248 27.6539 25.16 26.5499 26.184L22.6859 29.832H29.9099Z" fill="#5E5873"/>
</svg>
