<svg width="48" height="48" viewBox="0 0 48 48" fill="none" xmlns="http://www.w3.org/2000/svg">
<rect width="48" height="48" rx="6" fill="#28C76F" fill-opacity="0.12"/>
<path d="M25.1824 23.04C26.6544 23.28 27.7824 23.832 28.5664 24.696C29.3504 25.544 29.7424 26.6 29.7424 27.864C29.7424 28.84 29.4864 29.744 28.9744 30.576C28.4624 31.392 27.6784 32.048 26.6224 32.544C25.5824 33.04 24.3024 33.288 22.7824 33.288C21.5984 33.288 20.4304 33.136 19.2784 32.832C18.1424 32.512 17.1744 32.064 16.3744 31.488L17.8864 28.512C18.5264 28.992 19.2624 29.368 20.0944 29.64C20.9424 29.896 21.8064 30.024 22.6864 30.024C23.6624 30.024 24.4304 29.84 24.9904 29.472C25.5504 29.088 25.8304 28.552 25.8304 27.864C25.8304 26.488 24.7824 25.8 22.6864 25.8H20.9104V23.232L24.3664 19.32H17.2144V16.2H28.9744V18.72L25.1824 23.04Z" fill="#5E5873"/>
</svg>
